<svg clip-rule="evenodd" fill-rule="evenodd" height="2048" image-rendering="optimizeQuality"
     shape-rendering="geometricPrecision" text-rendering="geometricPrecision" viewBox="0 0 2048 2048" width="2048"
     xmlns="http://www.w3.org/2000/svg">
    <defs>
        <radialGradient id="GoldGradient">
            <stop offset="0%" stop-color="#FCF6BA" />
            <stop offset="100%" stop-color="#AA771C" />
        </radialGradient>
    </defs>
    <g fill="url(#GoldGradient)" fill-rule="nonzero">
        <path d="m681.214 1415.33c-205.777 3.75709-335.238-203.46-349.188-226.837-2.65866-3.84685-4.51063-8.33741-5.27481-13.2673-2.70827-17.4638 9.25276-33.8185 26.7166-36.5268l.0295276.121654c296.716-46.0276 352.477 205.673 358.181 236.532.627166 2.40591.983859 4.92166 1.0311 7.51654.322441 17.6693-13.741 32.2571-31.4103 32.5796l-.0850394-.119291z"/>
        <path d="m445.129 1106.09c-178.58-98.8784-188.438-339.942-188.973-370.496-.49252-4.85788.121654-9.90237 2.00669-14.7673 6.38504-16.4788 24.9225-24.6603 41.4012-18.2752l-.0377953.0980316c282.193 109.371 201.279 358.063 191.798 384.428-.651969 2.23465-1.55788 4.4315-2.73189 6.55394-8.55473 15.4642-28.0276 21.0638-43.4918 12.5091l.0283465-.0507874z"/>
        <path d="m395.229 720.162c-105.145-174.696 6.57993-388.188 21.5492-415.217 2.00079-4.50827 5.07638-8.61969 9.18426-11.9244 13.7693-11.0776 33.9142-8.89489 44.9918 4.87441l-24.9331 20.0587 24.8752-19.9996c188.551 234.364-2.52402 408.689-25.8555 428.556-1.75276 1.71851-3.72874 3.26221-5.92323 4.58268-15.1406 9.11457-34.8048 4.22835-43.9193-10.9122l.0307087-.0188977z"/>
        <path d="m1425.14 1520.97c-20.0528 19.4575-198.494 185.467-395.872 128.699l-.0956694.00354331c-16.9843-4.88504-26.7933-22.6146-21.9083-39.5988.715749-2.4874 1.70906-4.8189 2.9315-6.97441 13.4032-28.1551 132.412-257.177 407.218-135.873l.0472441-.0248032c16.1669 7.13623 23.4886 26.0303 16.3524 42.1973-2.04213 4.6252-5.04685 8.5252-8.67402 11.5713z"/>
        <path d="m1715.97 1188.49c-13.95 23.3764-143.412 230.594-349.188 226.837l-.0850394.119291c-17.6693-.322441-31.7327-14.9102-31.4103-32.5796.0472441-2.59488.403937-5.11063 1.0311-7.51654 5.70473-30.8599 61.4658-282.56 358.181-236.532l.0295276-.121654c17.4638 2.70827 29.4248 19.063 26.7166 36.5268-.764174 4.92993-2.61614 9.42048-5.27481 13.2673z"/>
        <path d="m1791.84 735.598c-.53504 30.554-10.3925 271.617-188.973 370.496l.0283465.0507874c-15.4642 8.55473-34.937 2.95512-43.4918-12.5091-1.17402-2.12244-2.07992-4.31929-2.73189-6.55394-9.48072-26.3646-90.3946-275.057 191.798-384.428l-.0377953-.0980316c16.4788-6.38504 35.0162 1.79646 41.4012 18.2752 1.88504 4.86496 2.49921 9.90946 2.00669 14.7673z"/>
        <path d="m1631.22 304.946c14.9693 27.0284 126.695 240.521 21.5492 415.217l.0307087.0188977c-9.11457 15.1406-28.7788 20.0268-43.9193 10.9122-2.19449-1.32047-4.17048-2.86418-5.92323-4.58268-23.3315-19.8673-214.407-194.192-25.8555-428.556l-.0578741-.0590552c11.0776-13.7693 31.2225-15.952 44.9918-4.87441 4.10788 3.30473 7.18347 7.41615 9.18426 11.9244z"/>
        <path d="m1046.77 1649.67c-197.378 56.7685-375.82-109.241-395.873-128.699-3.62717-3.04607-6.63189-6.94607-8.67402-11.5713-7.13623-16.1669.185433-35.0611 16.3524-42.1973l.0472441.0248032c274.807-121.304 393.816 107.718 407.22 135.873 1.22244 2.15551 2.21575 4.48701 2.9315 6.97441 4.88504 16.9843-4.92402 34.7138-21.9083 39.5988l-.0956694-.00354331z"/>
        <path d="m745.844 1700.54c-16.3606 6.48898-24.365 25.0146-17.876 41.3752 6.48898 16.3606 25.0146 24.365 41.3752 17.876l280.428-111.243c16.3606-6.48898 24.365-25.0146 17.876-41.3752-6.48898-16.3606-25.0146-24.365-41.3752-17.876z"/>
        <path d="m1306.7 1759.79c16.3606 6.48898 34.8862-1.51536 41.3752-17.876 6.48898-16.3606-1.51536-34.8862-17.876-41.3752l-280.428-111.243c-16.3606-6.48898-34.8862 1.51536-41.3752 17.876-6.48898 16.3606 1.51536 34.8862 17.876 41.3752z"/>
    </g>
    <path d="m0 0h2048v2048h-2048z" fill="none"/>
</svg>